<svg width="16" height="16" viewBox="0 0 16 16" fill="none" xmlns="http://www.w3.org/2000/svg">
<g clip-path="url(#clip0_1360_8635)">
<path d="M15.0931 8.14094V6.52073L7.97734 11.1473L0.777344 6.52073V8.14094L7.9925 12.7708L15.0931 8.14094ZM15.0931 11.3216V9.70473L7.97734 14.3313L0.777344 9.70473V11.3275L7.9925 15.9574L15.0931 11.3216ZM9.68176 2.00199L4.98871 4.86094L5.6624 5.27357L10.3672 2.42894L11.1605 2.91315L6.43208 5.76283L7.1024 6.1721L11.8434 3.30726L12.6274 3.7881L7.91671 6.67399L8.5365 7.10347L13.286 4.19652L15.0898 5.30304L7.93524 9.68031L0.777344 5.30304L7.93524 0.925781L9.68176 2.00199Z" fill="#27A4CA"/>
</g>
<defs>
<clipPath id="clip0_1360_8635">
<rect width="16" height="16" fill="white"/>
</clipPath>
</defs>
</svg>
