<svg width="16" height="16" viewBox="0 0 16 16" fill="none" xmlns="http://www.w3.org/2000/svg">
<path d="M6.52616 2.32355L11.9547 14.2604C11.9915 14.3413 12.0063 14.4294 11.9976 14.5168C11.9889 14.6043 11.9571 14.6884 11.905 14.7616C11.8529 14.8348 11.7821 14.8949 11.699 14.9365C11.6159 14.9781 11.523 14.9999 11.4286 15H0.571443C0.477048 14.9999 0.384139 14.9781 0.301005 14.9365C0.217872 14.8949 0.147098 14.8348 0.0949989 14.7616C0.0428995 14.6884 0.011094 14.6043 0.00241989 14.5168C-0.00625426 14.4294 0.00847263 14.3413 0.0452869 14.2604L5.47384 2.32355C5.51779 2.22757 5.5911 2.14572 5.68465 2.0882C5.7782 2.03067 5.88786 2 6 2C6.11214 2 6.2218 2.03067 6.31535 2.0882C6.4089 2.14572 6.48221 2.22757 6.52616 2.32355Z" fill="#76CAE4"/>
<path d="M11.0241 6.26566L15.9379 14.3056C15.9827 14.3787 16.0039 14.4599 15.9994 14.5416C15.995 14.6233 15.9651 14.7028 15.9126 14.7724C15.8601 14.8419 15.7867 14.8994 15.6994 14.9392C15.6121 14.9791 15.5138 15 15.4138 15H5.58621C5.48624 15 5.38794 14.9791 5.30063 14.9392C5.21333 14.8994 5.13993 14.8419 5.08741 14.7724C5.03489 14.7028 5.005 14.6233 5.00058 14.5416C4.99615 14.4599 5.01733 14.3787 5.06212 14.3056L9.97474 6.26566C10.0234 6.18586 10.0982 6.11872 10.1909 6.07179C10.2836 6.02486 10.3904 6 10.4994 6C10.6084 6 10.7153 6.02486 10.8079 6.07179C10.9006 6.11872 10.9755 6.18586 11.0241 6.26566Z" fill="#27A4CA"/>
<path d="M14 6C15.1046 6 16 5.10457 16 4C16 2.89543 15.1046 2 14 2C12.8954 2 12 2.89543 12 4C12 5.10457 12.8954 6 14 6Z" fill="#47ADCC"/>
</svg>
